<?xml version="1.0" encoding="iso-8859-1"?>
<!-- Generator: Adobe Illustrator 19.0.0, SVG Export Plug-In . SVG Version: 6.00 Build 0)  -->
<svg xmlns="http://www.w3.org/2000/svg" xmlns:xlink="http://www.w3.org/1999/xlink" version="1.1" id="Layer_1" x="0px" y="0px" viewBox="0 0 512 512" style="enable-background:new 0 0 512 512;" xml:space="preserve" fill="grey" fill-opacity="0.3"> 
<g>
	<path d="M256.354,22.801l-42.426,42.426c83.442,83.442,65.455,65.455,148.492,148.492l84.853,84.853l42.426-42.426L256.354,22.801z   "/>
	<path d="M65.435,213.72l-42.426,42.426l233.345,233.345l42.426-42.426C215.791,364.076,151.8,300.085,65.435,213.72z"/>
	<rect x="211.354" y="181.146" transform="matrix(0.7071 0.7071 -0.7071 0.7071 256.2071 -106.2458)" width="90" height="150"/>
	<polygon points="0,363.508 42.426,405.934 0,448.36 63.64,512 106.066,469.574 148.492,512 192.714,468.278 44.222,319.786  "/>
	<polygon points="512,148.492 469.574,106.066 512,64.347 447.653,0 405.934,42.426 363.508,0 319.993,44.014 468.486,192.507  "/>
</g>

</svg>