<?xml version="1.0" encoding="iso-8859-1"?>
<!-- Generator: Adobe Illustrator 16.0.0, SVG Export Plug-In . SVG Version: 6.00 Build 0)  -->
<!DOCTYPE svg PUBLIC "-//W3C//DTD SVG 1.1//EN" "http://www.w3.org/Graphics/SVG/1.1/DTD/svg11.dtd">
<svg version="1.1" id="Capa_1" xmlns="http://www.w3.org/2000/svg" xmlns:xlink="http://www.w3.org/1999/xlink" x="0px" y="0px"
	 width="212.214px" height="212.214px" viewBox="0 0 212.214 212.214" style="enable-background:new 0 0 212.214 212.214;"
	 xml:space="preserve">
<g>
	<g>
		<path d="M16.386,159.683c12.774,1.951,20.157-7.347,28.706-18.125c1.911-2.399,3.741-4.989,5.61-7.589
			c1.192-1.688,2.402-3.354,3.634-5.01c0.037-0.042,0.082-0.073,0.113-0.115c0.021-0.021,0.021-0.053,0.032-0.074
			c6.739-8.996,14.417-16.959,27.113-16.959c0.032,0,0.077,0,0.108,0c6.188,0.016,11.784,2.479,15.747,6.929
			c2.9,3.238,4.683,7.394,5.456,11.887c-1.205-1.065-2.616-1.92-4.316-2.5c-5.453-1.872-11.372,1.034-13.233,6.471
			c-0.762,2.22-0.606,4.604,0.408,6.702c1.021,2.104,2.813,3.691,5.034,4.43c0.789,0.279,1.619,0.412,2.436,0.412
			c1.118,0,2.223-0.254,3.262-0.755c1.793-0.87,3.125-2.389,3.768-4.276c0.562-1.619,0.448-3.359-0.303-4.894
			c-0.759-1.529-2.067-2.679-3.681-3.228c-0.918-0.316-1.875,0.042-2.405,0.791c-0.021,0-0.021,0-0.032,0
			c-1.097,0.707-1.437,2.178-0.728,3.264c0.604,0.966,1.769,1.282,2.8,0.918c0.045,0.068,0.122,0.079,0.153,0.132
			c0.242,0.507,0.29,1.065,0.113,1.593c-0.282,0.791-0.833,1.435-1.587,1.804c-0.751,0.358-1.592,0.411-2.381,0.137
			c-1.136-0.39-2.025-1.181-2.56-2.246c-0.525-1.076-0.583-2.278-0.211-3.407c1.097-3.185,4.574-4.883,7.76-3.797
			c5.266,1.814,5.674,6.519,5.055,10.305c-1.227,3.564-3.386,6.739-6.395,9.154c-4.179,3.365-9.408,4.884-14.763,4.309
			c-8.569-0.943-14.787-8.675-13.846-17.238c0.728-6.619,6.658-11.391,13.321-10.705c1.15,0.158,2.247-0.729,2.375-1.909
			c0.129-1.187-0.728-2.257-1.911-2.373c-8.904-1.002-17.097,5.537-18.078,14.522c-1.2,10.938,6.732,20.81,17.674,22.001
			c0.901,0.105,1.798,0.147,2.694,0.147c5.529,0,10.863-1.866,15.232-5.389c2.215-1.772,3.974-3.924,5.432-6.26v10.436
			c0,1.192,0.973,2.157,2.149,2.157c1.179,0,2.162-0.965,2.162-2.157v-10.262c1.423,2.272,3.154,4.371,5.302,6.096
			c4.388,3.513,9.703,5.379,15.235,5.379c0.896,0,1.798-0.053,2.694-0.143c10.938-1.196,18.874-11.063,17.672-21.995
			c-0.981-8.996-9.14-15.524-18.078-14.533c-1.191,0.126-2.046,1.196-1.914,2.384c0.121,1.181,1.224,2.066,2.368,1.908
			c6.687-0.706,12.604,4.087,13.32,10.705c0.944,8.564-5.284,16.301-13.837,17.234c-5.369,0.569-10.579-0.949-14.75-4.309
			c-3.407-2.737-5.719-6.429-6.782-10.584c-0.292-3.47,0.594-7.288,5.211-8.881c3.174-1.064,6.66,0.617,7.762,3.787
			c0.786,2.33-0.442,4.872-2.773,5.663c-1.613,0.56-3.417-0.316-3.971-1.94c-0.18-0.527-0.138-1.081,0.105-1.582
			c0.031-0.074,0.121-0.084,0.163-0.143c1.018,0.354,2.184,0.031,2.801-0.918c0.701-1.086,0.379-2.567-0.729-3.264
			c-0.01,0-0.021,0-0.042-0.011c-0.548-0.733-1.497-1.086-2.415-0.786c-1.604,0.555-2.911,1.693-3.662,3.244
			c-0.754,1.534-0.862,3.264-0.307,4.883c1.063,3.08,3.964,5.031,7.059,5.031c0.791,0,1.614-0.133,2.405-0.412
			c4.566-1.55,7.014-6.549,5.452-11.137c-1.866-5.427-7.814-8.327-13.236-6.477c-1.561,0.538-2.91,1.298-4.039,2.247
			c0.76-4.146,2.396-7.952,4.979-11.043c1.187-1.022,2.426-2.204,3.686-3.533c3.528-2.579,7.842-3.96,12.482-3.971
			c0.031,0,0.063,0,0.11,0c12.709,0,20.393,7.968,27.122,16.976c0.01,0.01,0.01,0.031,0.031,0.053
			c0.031,0.042,0.068,0.068,0.101,0.105c1.233,1.655,2.452,3.338,3.648,5.02c1.856,2.605,3.708,5.189,5.606,7.594
			c8.559,10.784,15.952,20.082,28.708,18.131c5.115-0.791,9.619-3.576,12.683-7.857c3.127-4.377,4.377-9.914,3.428-15.215
			c-1.593-8.854-10.051-14.781-18.958-13.188c-1.181,0.211-1.956,1.34-1.745,2.511c0.211,1.176,1.297,1.961,2.51,1.74
			c6.497-1.14,12.772,3.185,13.943,9.703c0.754,4.166-0.232,8.511-2.689,11.938c-2.362,3.322-5.864,5.495-9.804,6.097
			c-9.829,1.486-15.493-4.968-24.669-16.538c-1.229-1.529-2.384-3.201-3.564-4.841c0.01,0,0.021,0,0.042,0
			c1.688,0,3.417-0.453,5.094-1.402c4.293-2.416,5.816-7.868,3.417-12.182c-2.057-3.645-6.697-4.937-10.336-2.891
			c-1.508,0.854-2.6,2.247-3.063,3.929c-0.479,1.683-0.269,3.434,0.585,4.946c0.738,1.303,1.936,2.252,3.396,2.653
			c1.45,0.4,2.922,0.211,4.208-0.485c-0.116,0.084-0.189,0.2-0.332,0.274c-3.729,2.104-6.708-0.105-8.606-2.447
			c-7.214-9.677-15.968-18.921-30.738-18.921c-0.043,0-0.09,0-0.116,0c-2.447,0-4.768,0.443-7.014,1.076
			c2.404-4.101,4.092-8.886,3.986-14.23c-0.11-5.213-3.475-9.856-6.434-13.954c-2.373-3.29-4.836-6.687-4.44-9.001
			c0.327-1.806,1.572-2.468,4.177-3.452c2.089-0.788,5.242-1.982,5.163-5.45c-0.132-6.631-8.707-11.625-19.96-11.625l-0.73,0.005
			c-5.168,0.108-10.049,1.284-13.743,3.322c-4.24,2.336-6.539,5.572-6.462,9.115c0.079,3.47,3.267,4.53,5.387,5.237
			c2.637,0.88,3.931,1.484,4.306,3.267c0.501,2.307-1.825,5.806-4.071,9.186c-2.803,4.216-5.961,8.997-5.866,14.202
			c0.103,5.075,1.803,9.574,4.168,13.441c-2.305-0.664-4.691-1.123-7.204-1.139c-0.037,0-0.079,0-0.113,0
			c-14.816,0-23.57,9.286-30.794,18.989c-1.896,2.326-4.838,4.472-8.553,2.379c-0.119-0.074-0.201-0.19-0.33-0.274
			c2.706,1.477,6.091,0.521,7.602-2.157c0.854-1.508,1.065-3.264,0.601-4.951c-0.478-1.677-1.561-3.059-3.069-3.913
			c-3.67-2.057-8.287-0.754-10.333,2.89c-2.41,4.304-0.881,9.777,3.406,12.182c1.685,0.938,3.407,1.403,5.103,1.403
			c0.01,0,0.026-0.011,0.045-0.011c-1.184,1.646-2.355,3.312-3.57,4.841c-9.191,11.58-14.871,18.057-24.672,16.537
			c-3.95-0.606-7.438-2.773-9.814-6.096c-2.444-3.428-3.433-7.783-2.671-11.939c1.17-6.518,7.441-10.853,13.935-9.703
			c1.194,0.211,2.302-0.574,2.508-1.74c0.211-1.17-0.562-2.299-1.746-2.51c-8.862-1.593-17.37,4.324-18.958,13.188
			c-0.957,5.29,0.296,10.837,3.417,15.214C6.756,156.107,11.26,158.896,16.386,159.683z M168.166,124.793
			c-0.312,0.18-0.654,0.211-1.008,0.121c-0.332-0.1-0.622-0.311-0.785-0.616c-0.301-0.512-0.349-1.097-0.201-1.661
			c0.148-0.564,0.527-1.028,1.019-1.313c1.571-0.886,3.564-0.327,4.439,1.234c1.019,1.804,0.644,3.944-0.686,5.379
			c0.475-0.665,0.564-1.562,0.143-2.32C170.528,124.572,169.21,124.213,168.166,124.793z M106.203,101.922v0.047
			c-0.021,0-0.055-0.016-0.087-0.016c-0.01,0-0.016,0.005-0.026,0.005v-0.037c-2.7,0-4.941-2.205-4.994-4.91
			c-0.029-1.339,0.469-2.603,1.392-3.57c0.929-0.965,2.16-1.511,3.618-1.537c2.7,0,4.946,2.202,5.007,4.902
			c0.021,1.339-0.478,2.608-1.41,3.576C108.8,101.351,107.553,101.888,106.203,101.922z M95.1,83.966
			c2.858-4.308,5.816-8.77,4.854-13.299c-1.073-5.002-5.334-6.415-7.889-7.265c-0.517-0.171-1.242-0.414-1.669-0.614
			c0.2-1.297,1.524-2.721,3.652-3.884c2.9-1.598,6.993-2.562,11.243-2.65l0.609-0.005c7.907,0,13.951,3.056,14.516,5.946
			c-0.401,0.216-1.134,0.485-1.641,0.675c-2.51,0.949-6.718,2.536-7.594,7.58c-0.788,4.564,2.368,8.899,5.39,13.089
			c2.626,3.631,5.337,7.378,5.41,10.897c0.211,10.603-8.816,19.014-13.71,22.795V107.09c2.014-0.427,3.863-1.439,5.326-2.966
			c1.915-2.009,2.943-4.638,2.891-7.42c-0.116-5.621-4.775-10.193-10.603-10.193l0,0c-2.787,0.053-5.368,1.192-7.301,3.196
			c-1.922,2.004-2.953,4.638-2.9,7.415c0.098,4.894,3.641,8.983,8.258,9.975v9.64c-5.179-3.792-13.629-11.507-13.835-21.65
			C90.066,91.56,92.621,87.697,95.1,83.966z M41.181,127.937c-1.329-1.44-1.69-3.586-0.696-5.379
			c0.875-1.571,2.871-2.131,4.458-1.234c0.499,0.285,0.854,0.749,1.015,1.308c0.147,0.56,0.087,1.155-0.203,1.667
			c-0.34,0.627-1.147,0.859-1.788,0.495c-1.021-0.585-2.365-0.221-2.937,0.834C40.614,126.375,40.707,127.271,41.181,127.937z"/>
	</g>
</g>
<g>
</g>
<g>
</g>
<g>
</g>
<g>
</g>
<g>
</g>
<g>
</g>
<g>
</g>
<g>
</g>
<g>
</g>
<g>
</g>
<g>
</g>
<g>
</g>
<g>
</g>
<g>
</g>
<g>
</g>
</svg>
